<?xml version="1.0" encoding="utf-8"?>
<!-- Generator: Adobe Illustrator 25.1.0, SVG Export Plug-In . SVG Version: 6.00 Build 0)  -->
<svg version="1.1" xmlns="http://www.w3.org/2000/svg" xmlns:xlink="http://www.w3.org/1999/xlink" x="0px" y="0px"
	 viewBox="0 0 64 64" style="enable-background:new 0 0 64 64;" xml:space="preserve">
<style type="text/css">
	.st0{fill:#D91414;}
</style>
<g id="logo-text">
	<path d="M1.9,44.3h6.4v1.9H4.1v2h3.6v1.8H4.1v2.2h4.4V54H1.9V44.3z"/>
	<path d="M12.6,49l-2.7-4.8h2.5l0.9,1.8c0.1,0.2,0.2,0.5,0.3,0.7c0.1,0.3,0.3,0.5,0.4,0.8h0.1c0.1-0.3,0.2-0.6,0.3-0.8
		s0.2-0.5,0.3-0.7l0.9-1.8h2.4l-2.7,4.9l2.9,4.9h-2.5l-1.1-2c-0.1-0.3-0.3-0.5-0.4-0.8s-0.2-0.5-0.4-0.8h-0.1
		c-0.1,0.3-0.2,0.6-0.4,0.8s-0.2,0.5-0.4,0.8l-1,2H9.8L12.6,49z"/>
	<path d="M19.6,44.3h3.6c0.5,0,1,0.1,1.5,0.2c0.5,0.1,0.9,0.3,1.2,0.5c0.3,0.2,0.6,0.6,0.8,1c0.2,0.4,0.3,0.9,0.3,1.5
		c0,0.6-0.1,1.1-0.3,1.5s-0.5,0.8-0.8,1c-0.4,0.3-0.8,0.5-1.2,0.6s-1,0.2-1.5,0.2h-1.4V54h-2.2V44.3z M23,49c1.2,0,1.8-0.5,1.8-1.6
		c0-0.5-0.1-0.9-0.5-1.1C24.1,46.1,23.6,46,23,46h-1.2v3H23z"/>
	<path d="M29.1,44.3h2.2v7.9h4.4V54h-6.6V44.3z"/>
	<path d="M41,54.2c-0.6,0-1.1-0.1-1.6-0.4s-0.9-0.6-1.2-1c-0.3-0.4-0.6-1-0.8-1.6s-0.3-1.3-0.3-2.1c0-0.8,0.1-1.5,0.3-2.1
		s0.5-1.1,0.8-1.6c0.3-0.4,0.8-0.8,1.2-1s1-0.3,1.6-0.3s1.1,0.1,1.6,0.3c0.5,0.2,0.9,0.6,1.2,1c0.3,0.4,0.6,1,0.8,1.6
		c0.2,0.6,0.3,1.3,0.3,2.1c0,0.8-0.1,1.5-0.3,2.1s-0.5,1.2-0.8,1.6c-0.3,0.4-0.8,0.8-1.2,1C42.1,54.1,41.6,54.2,41,54.2z M41,52.3
		c0.5,0,0.9-0.3,1.2-0.9c0.3-0.6,0.5-1.4,0.5-2.3c0-1-0.1-1.7-0.5-2.3C41.9,46.3,41.5,46,41,46s-0.9,0.3-1.2,0.8
		c-0.3,0.6-0.5,1.3-0.5,2.3c0,1,0.1,1.8,0.5,2.3C40.1,52,40.5,52.3,41,52.3z"/>
	<path d="M51.8,54l-1.9-3.5h-1.2V54h-2.2v-9.8H50c0.5,0,1,0,1.5,0.1s0.9,0.3,1.2,0.5c0.3,0.2,0.6,0.5,0.8,0.9
		c0.2,0.4,0.3,0.9,0.3,1.5c0,0.7-0.2,1.3-0.5,1.8c-0.3,0.5-0.7,0.8-1.3,1l2.2,3.9H51.8z M48.8,48.8h1.1c1.2,0,1.8-0.5,1.8-1.5
		c0-0.5-0.1-0.8-0.5-1c-0.3-0.2-0.7-0.3-1.3-0.3h-1.1V48.8z"/>
	<path d="M55.9,44.3h6.4v1.9h-4.2v2h3.6v1.8h-3.6v2.2h4.4V54h-6.6V44.3z"/>
	<path class="st0" d="M26.6,19.2l-3.5-3.1c-0.7-0.7-0.3-1.9,0.7-1.9h4.6c0.3,0,0.6,0.1,0.8,0.3l1.3,1.4c0.5,0.6,1.1,1.2,1.8,2h0.2
		c0.6-0.8,1.2-1.4,1.6-2l1.1-1.3c0.2-0.3,0.5-0.4,0.8-0.4h4.3c1,0,1.4,1.2,0.7,1.9l-3.6,3.2c-0.5,0.4-0.5,1.2,0,1.6l3.8,3.3
		c0.8,0.6,0.3,1.9-0.7,1.9H36c-0.3,0-0.6-0.1-0.8-0.3l-1.6-1.6c-0.6-0.6-1.3-1.3-1.9-2h-0.2c-0.5,0.7-1.1,1.4-1.6,2l-1.4,1.6
		c-0.2,0.2-0.5,0.3-0.8,0.3h-4.3c-1,0-1.4-1.2-0.7-1.9l3.9-3.4C27.1,20.4,27.1,19.7,26.6,19.2z"/>
	<path class="st0" d="M39.6,8.2c0.6,0,1.2,0.4,1.4,1l4.7,14.5c0.2,0.6,0,1.3-0.5,1.6l-12.3,9c-0.2,0.2-0.5,0.3-0.9,0.3
		s-0.6-0.1-0.9-0.3l-12.3-9c-0.5-0.4-0.7-1-0.5-1.6L23,9.2c0.2-0.6,0.7-1,1.4-1H39.6 M39.6,5.5H24.4c-1.8,0-3.4,1.2-4,2.9l-4.7,14.5
		c-0.6,1.7,0.1,3.6,1.5,4.7l12.3,9c0.7,0.5,1.6,0.8,2.5,0.8c0.9,0,1.7-0.3,2.5-0.8l12.3-9c1.5-1.1,2.1-3,1.5-4.7L43.6,8.4
		C43,6.7,41.4,5.5,39.6,5.5L39.6,5.5z"/>
</g>
<g id="logo">
</g>
</svg>
